<svg width="119" height="29" viewBox="0 0 119 29" fill="none" xmlns="http://www.w3.org/2000/svg">
<path d="M0.6 28V0.8H9.04C11.3067 0.8 13.2267 1.58667 14.8 3.16C16.3733 4.73333 17.16 6.65333 17.16 8.92C17.16 11.1867 16.3733 13.1067 14.8 14.68C13.2267 16.2533 11.3067 17.04 9.04 17.04H3.8V28H0.6ZM8.92 3.72H3.8V14.12H8.92C10.3067 14.12 11.4933 13.6133 12.48 12.6C13.4933 11.56 14 10.3333 14 8.92C14 7.50667 13.4933 6.29333 12.48 5.28C11.4933 4.24 10.3067 3.72 8.92 3.72ZM42.6722 3.64C42.3522 3.26667 42.1922 2.8 42.1922 2.24C42.1922 1.68 42.3522 1.22667 42.6722 0.879999C42.9922 0.506665 43.4589 0.319999 44.0722 0.319999C44.6855 0.319999 45.1655 0.506665 45.5122 0.879999C45.8589 1.25333 46.0322 1.70667 46.0322 2.24C46.0322 2.77333 45.8589 3.22667 45.5122 3.6C45.1655 3.97333 44.6855 4.16 44.0722 4.16C43.4589 4.16 42.9922 3.98667 42.6722 3.64ZM42.5922 28V8H45.6322V28H42.5922ZM73.16 10.6V8H76.2L77.16 2H79.24V8H83.92V10.6H79.24V23.64C79.24 25.1067 79.84 25.84 81.04 25.84C81.9467 25.84 82.9333 25.4533 84 24.68L85.12 26.72C83.5733 27.9467 82.0667 28.56 80.6 28.56C79.1333 28.56 78.0267 28.2133 77.28 27.52C76.56 26.8 76.2 25.5067 76.2 23.64V10.6H73.16ZM111.057 28H108.017V12L107.617 8L110.257 7.8L111.057 12.6C111.857 10.9467 112.871 9.69333 114.097 8.84C115.324 7.98667 116.657 7.56 118.097 7.56L118.297 10.6C113.604 10.9733 111.191 14.56 111.057 21.36V28Z" fill="#708090"/>
<path d="M21.5516 25.64C20.0849 23.6667 19.3516 21.12 19.3516 18C19.3516 14.88 20.0849 12.3467 21.5516 10.4C23.0182 8.42667 25.2049 7.44 28.1116 7.44C31.0449 7.44 33.2582 8.42667 34.7516 10.4C36.2449 12.3467 36.9916 14.88 36.9916 18C36.9916 21.12 36.2449 23.6667 34.7516 25.64C33.2582 27.5867 31.0449 28.56 28.1116 28.56C25.2049 28.56 23.0182 27.5867 21.5516 25.64ZM23.8316 12.36C22.8716 13.8 22.3916 15.68 22.3916 18C22.3916 20.32 22.8716 22.2133 23.8316 23.68C24.7916 25.12 26.2316 25.84 28.1516 25.84C30.0716 25.84 31.5116 25.12 32.4716 23.68C33.4582 22.2133 33.9516 20.32 33.9516 18C33.9516 15.68 33.4582 13.8 32.4716 12.36C31.5116 10.8933 30.0716 10.16 28.1516 10.16C26.2316 10.16 24.7916 10.8933 23.8316 12.36ZM62.4266 7.44C66.7999 7.44 68.9866 10.24 68.9866 15.84V28H65.9466V15.84C65.9466 12.0533 64.5999 10.16 61.9066 10.16C60.3599 10.16 58.9466 10.96 57.6666 12.56C56.4132 14.16 55.7466 16.36 55.6666 19.16V28H52.6266V12L52.2266 8L54.8666 7.8L55.6266 11.92C56.4532 10.48 57.4799 9.37333 58.7066 8.6C59.9332 7.82667 61.1732 7.44 62.4266 7.44ZM95.3222 28.56C92.9222 28.56 90.9355 27.72 89.3622 26.04C87.8155 24.36 87.0422 21.8933 87.0422 18.64C87.0422 15.3867 87.9622 12.7067 89.8022 10.6C91.6422 8.49333 94.0289 7.44 96.9622 7.44C98.8289 7.44 100.336 8.01333 101.482 9.16C102.629 10.28 103.202 11.6933 103.202 13.4C103.202 15.08 102.322 16.6267 100.562 18.04C98.8289 19.4533 96.2955 20.16 92.9622 20.16C92.0822 20.16 91.1489 20.12 90.1622 20.04C90.3489 21.9333 90.9222 23.3733 91.8822 24.36C92.8689 25.3467 94.0555 25.84 95.4422 25.84C97.7622 25.84 99.6955 25.12 101.242 23.68L102.682 25.64C100.656 27.5867 98.2022 28.56 95.3222 28.56ZM96.8422 10.16C95.0022 10.16 93.4689 10.8133 92.2422 12.12C91.0422 13.4267 90.3355 15.16 90.1222 17.32C91.0022 17.4533 91.9755 17.52 93.0422 17.52C95.3355 17.52 97.0955 17.0933 98.3222 16.24C99.5489 15.3867 100.162 14.4 100.162 13.28C100.162 12.4533 99.8555 11.7333 99.2422 11.12C98.6555 10.48 97.8555 10.16 96.8422 10.16Z" fill="#228B22"/>
</svg>
